<?xml version="1.0" encoding="UTF-8" standalone="no"?>
<!DOCTYPE svg PUBLIC "-//W3C//DTD SVG 1.1//EN" "http://www.w3.org/Graphics/SVG/1.1/DTD/svg11.dtd">
<svg width="100%" height="100%" viewBox="0 0 652 631" version="1.1" xmlns="http://www.w3.org/2000/svg" xmlns:xlink="http://www.w3.org/1999/xlink" xml:space="preserve" xmlns:serif="http://www.serif.com/" style="fill-rule:evenodd;clip-rule:evenodd;stroke-linejoin:round;stroke-miterlimit:2;">
    <g transform="matrix(0.318359,0,0,0.318365,0,0)">
        <path d="M1315.42,323.848C1348.16,323.601 1377.49,331.091 1401.49,354.652C1410.47,363.478 1417.82,373.837 1423.16,385.243C1432.36,404.473 1437.61,426.388 1442.66,447.011C1459.75,514.814 1468.63,584.425 1469.12,654.347C1470.03,734.648 1459.65,814.679 1438.3,892.094C1433.63,908.934 1428.87,926.402 1422.46,942.674C1471.24,954.119 1513.38,984.698 1539.38,1027.53C1573.99,1084.41 1576.99,1157.07 1561.25,1220.5C1550.57,1262.44 1532.68,1302.19 1508.36,1337.99L1494.38,1331.43C1493.72,1267.77 1481.13,1210.33 1433.73,1164.31C1412.44,1143.63 1387.63,1129.69 1359.73,1119.92C1361.01,1141.17 1361.32,1161.89 1358.83,1183.07C1350.36,1255.2 1314.56,1324.61 1266.69,1378.48C1211.57,1440.51 1130.71,1491.1 1046.18,1495.77C1020.45,1497.19 995.97,1495.13 970.917,1488.91C965.965,1487.67 958.657,1486.34 954.709,1482.9C953.133,1481.52 952.63,1480.41 951.913,1478.5C951.99,1474.55 953.318,1472.34 956.071,1469.66C963.592,1462.34 998.477,1442.61 999.161,1433.44C862.8,1503.39 710.479,1536.34 557.402,1529.01C516.436,1526.97 478.659,1523.45 449.588,1490.96C426.091,1464.69 419.648,1433.4 421.525,1399.11C427.536,1367.97 439.269,1342.46 465.862,1323.72C492.403,1305.01 546.723,1295.37 579.33,1284.54C666.126,1255.95 748.156,1214.53 822.697,1161.66C838.935,1150.07 855.622,1138.36 870.259,1124.76C871.396,1114.97 876.292,1104.47 879.23,1095.03C887.62,1068.08 892.779,1039.97 890.927,1011.65C889.276,986.406 881.439,960.238 861.671,943.231C843.482,927.582 818.683,922.497 795.275,924.376C706.34,931.516 622.324,1010.53 567.602,1075.13L535.169,1058.34C547.284,1008.89 565.731,964.383 595.168,922.594C647.195,848.74 727.614,787.906 818.072,772.502C874.462,762.899 932.207,771.791 979.376,805.369C1017.88,832.78 1046.42,878.183 1054.2,924.905C1115.15,837.601 1161.97,725.487 1186.37,622.073C1196.33,579.655 1203.3,536.592 1207.24,493.199C1209.51,465.416 1208.05,435.755 1213.98,408.532C1217.19,393.823 1223.1,380.006 1232.12,367.912C1252.81,340.19 1282.2,328.486 1315.42,323.848Z" style="fill:rgb(254,235,133);fill-rule:nonzero;"/>
    </g>
    <g transform="matrix(0.318359,0,0,0.318365,0,0)">
        <path d="M870.259,1124.76C876.209,1121.77 881.819,1116.21 886.988,1111.91C921.666,1083.07 954.325,1050.17 983.943,1016.18C991.052,1008.03 1008.23,983.22 1015.92,979.237C1066.14,1005.6 1099.18,1042.24 1116.25,1096.92C1117.4,1100.61 1118.61,1104.31 1119.51,1108.06L1119.75,1110.88C1138.85,1192.35 1115.67,1279.44 1072.31,1349.27C1057.09,1373.79 1034.6,1404.52 1012.84,1423.41C1008.56,1427.13 1003.58,1429.9 999.161,1433.44C862.8,1503.39 710.479,1536.34 557.402,1529.01C516.436,1526.97 478.659,1523.45 449.588,1490.96C426.091,1464.69 419.648,1433.4 421.525,1399.11C427.536,1367.97 439.269,1342.46 465.862,1323.72C492.403,1305.01 546.723,1295.37 579.33,1284.54C666.126,1255.95 748.156,1214.53 822.697,1161.66C838.935,1150.07 855.622,1138.36 870.259,1124.76Z" style="fill:rgb(254,171,21);fill-rule:nonzero;"/>
    </g>
    <g transform="matrix(0.318359,0,0,0.318365,0,0)">
        <path d="M870.259,1124.76C876.209,1121.77 881.819,1116.21 886.988,1111.91C921.666,1083.07 954.325,1050.17 983.943,1016.18C991.052,1008.03 1008.23,983.22 1015.92,979.237C1066.14,1005.6 1099.18,1042.24 1116.25,1096.92C1117.4,1100.61 1118.61,1104.31 1119.51,1108.06L1119.75,1110.88C1107.19,1123.51 1095.33,1136.85 1082.71,1149.44C1062.47,1169.28 1041.36,1188.2 1019.44,1206.15C865.391,1331.42 672.965,1399.93 474.416,1400.18C457.022,1400.23 438.776,1401.02 421.525,1399.11C427.536,1367.97 439.269,1342.46 465.862,1323.72C492.403,1305.01 546.723,1295.37 579.33,1284.54C666.126,1255.95 748.156,1214.53 822.697,1161.66C838.935,1150.07 855.622,1138.36 870.259,1124.76Z" style="fill:rgb(254,220,65);fill-rule:nonzero;"/>
    </g>
    <g transform="matrix(0.318359,0,0,0.318365,0,0)">
        <path d="M1315.42,323.848C1348.16,323.601 1377.49,331.091 1401.49,354.652C1410.47,363.478 1417.82,373.837 1423.16,385.243C1432.36,404.473 1437.61,426.388 1442.66,447.011C1459.75,514.814 1468.63,584.425 1469.12,654.347C1470.03,734.648 1459.65,814.679 1438.3,892.094C1433.63,908.934 1428.87,926.402 1422.46,942.674C1416.01,957.769 1411.22,973.835 1405.01,989.104C1390.87,1024.14 1374.22,1058.11 1355.19,1090.74C1352.64,1070.39 1344.35,1050.1 1334.42,1032.28C1313.57,994.884 1276.21,959.208 1234.23,947.305C1248.17,924.806 1259.36,898.787 1269.86,874.506C1327.2,740.941 1349.99,595.093 1336.15,450.402C1334.1,427.437 1331.02,403.685 1326.75,381.022C1323.16,361.939 1318.36,343.044 1315.42,323.848Z" style="fill:rgb(254,220,65);fill-rule:nonzero;"/>
    </g>
    <g transform="matrix(0.318359,0,0,0.318365,0,0)">
        <path d="M1015.92,979.237C1020.23,974.18 1029.31,970.534 1035.4,967.581C1069.07,951.251 1104.45,939.703 1141.94,936.596C1172.63,934.052 1205.47,936.826 1234.46,947.685C1204.46,999.518 1172.58,1048.12 1133.79,1093.91C1130.74,1097.52 1124.34,1107.4 1120.35,1108.52L1119.51,1108.06C1118.61,1104.31 1117.4,1100.61 1116.25,1096.92C1099.18,1042.24 1066.14,1005.6 1015.92,979.237Z" style="fill:rgb(254,243,192);fill-rule:nonzero;"/>
    </g>
</svg>
